<?xml version="1.0" encoding="UTF-8" standalone="no"?>
<svg
   xmlns:dc="http://purl.org/dc/elements/1.1/"
   xmlns:cc="http://creativecommons.org/ns#"
   xmlns:rdf="http://www.w3.org/1999/02/22-rdf-syntax-ns#"
   xmlns:svg="http://www.w3.org/2000/svg"
   xmlns="http://www.w3.org/2000/svg"
   xmlns:sodipodi="http://sodipodi.sourceforge.net/DTD/sodipodi-0.dtd"
   xmlns:inkscape="http://www.inkscape.org/namespaces/inkscape"
   version="1.1"
   id="Layer_1"
   x="0px"
   y="0px"
   viewBox="0 0 254 83"
   style="enable-background:new 0 0 254 83;"
   sodipodi:docname="logo.svg"
   inkscape:version="0.92.4 (5da689c313, 2019-01-14)">
  <metadata
     id="metadata15">
    <rdf:RDF>
      <cc:Work
         rdf:about="">
        <dc:format>image/svg+xml</dc:format>
        <dc:type
           rdf:resource="http://purl.org/dc/dcmitype/StillImage" />
        <dc:title></dc:title>
      </cc:Work>
    </rdf:RDF>
  </metadata>
  <defs
     id="defs13" />
  <sodipodi:namedview
     pagecolor="#ffffff"
     bordercolor="#666666"
     borderopacity="1"
     objecttolerance="10"
     gridtolerance="10"
     guidetolerance="10"
     inkscape:pageopacity="0"
     inkscape:pageshadow="2"
     inkscape:window-width="1920"
     inkscape:window-height="1017"
     id="namedview11"
     showgrid="false"
     inkscape:zoom="3.9753877"
     inkscape:cx="115.43355"
     inkscape:cy="10.32423"
     inkscape:window-x="-8"
     inkscape:window-y="-8"
     inkscape:window-maximized="1"
     inkscape:current-layer="Layer_1" />
  <style
     type="text/css"
     id="style2">
	.st0{fill:#2E3034;}
	.st1{fill:#488EFF;}
</style>
  <path
     style="fill:#488eff;stroke-width:0.22552057"
     inkscape:connector-curvature="0"
     id="path7"
     d="m 61.359692,38.62679 c 1.285467,0 1.75906,1.488436 1.014842,2.435622 -1.623748,1.894373 -3.247496,3.721089 -4.871244,5.615462 -0.473593,0.54125 -1.488436,0.54125 -2.029685,0 -1.623748,-1.894373 -3.247496,-3.721089 -4.871244,-5.615462 -1.014843,-1.150155 0.270624,-2.773903 1.420779,-2.435622 h 2.976872 C 53.376264,32.131797 48.437363,26.78696 41.739402,25.298524 40.453935,25.027899 39.168468,24.892587 37.883,24.892587 c -6.494992,0 -12.516391,3.585777 -15.696231,9.471864 -0.87953,1.623748 -3.315153,0.202969 -2.435622,-1.420779 4.329995,-7.848116 13.395922,-12.38108 22.25888,-10.419051 7.983428,1.691404 14.207796,8.118741 15.831544,16.102169 0,0 3.518121,0 3.518121,0 z m -45.600259,8.65999 c -1.285468,0 -1.759061,-1.488436 -1.014843,-2.435622 1.623748,-1.894373 3.247496,-3.72109 4.871244,-5.615463 0.473594,-0.541249 1.488436,-0.541249 2.029685,0 1.623749,1.894373 3.247497,3.72109 4.871245,5.615463 1.014842,1.150155 -0.270625,2.773903 -1.42078,2.435622 h -2.976871 c 1.623748,6.494992 6.562648,11.83983 13.260609,13.328265 1.285467,0.270625 2.570935,0.405937 3.856402,0.405937 6.494992,0 12.516392,-3.585777 15.696232,-9.471863 0.87953,-1.623749 3.315152,-0.202969 2.435622,1.420779 C 53.037983,60.88567 43.972056,65.418634 35.109097,63.456605 27.125669,61.697544 20.833645,55.270208 19.209897,47.28678 Z"
     class="st1" />
  <path
     inkscape:connector-curvature="0"
     id="path829"
     style="font-style:normal;font-variant:normal;font-weight:300;font-stretch:normal;font-size:27.64785385px;line-height:1.25;font-family:Montserrat;-inkscape-font-specification:'Montserrat Light';letter-spacing:-0.74212456px;word-spacing:0px;fill:#2e3034;fill-opacity:1;stroke:none;stroke-width:0.99999994"
     d="m 80.313493,51.78446 q -2.847729,0 -5.142501,-1.271801 -2.294772,-1.299449 -3.621869,-3.538925 -1.299449,-2.239476 -1.299449,-5.004262 0,-2.764785 1.299449,-5.004261 1.327097,-2.239476 3.621869,-3.511278 2.294772,-1.299449 5.142501,-1.299449 2.847729,0 5.142501,1.271801 2.294772,1.271802 3.594221,3.511278 1.327097,2.239476 1.327097,5.031909 0,2.792434 -1.327097,5.03191 -1.299449,2.239476 -3.594221,3.511277 -2.294772,1.271801 -5.142501,1.271801 z m 0,-1.299449 q 2.433011,0 4.396009,-1.105914 1.962997,-1.105914 3.096559,-3.041264 1.133562,-1.962997 1.133562,-4.368361 0,-2.405363 -1.133562,-4.340713 -1.133562,-1.962997 -3.096559,-3.068912 -1.962998,-1.105914 -4.396009,-1.105914 -2.433011,0 -4.423657,1.105914 -1.962997,1.105915 -3.096559,3.068912 -1.133562,1.93535 -1.133562,4.340713 0,2.405364 1.133562,4.368361 1.133562,1.93535 3.096559,3.041264 1.990646,1.105914 4.423657,1.105914 z" />
  <path
     inkscape:connector-curvature="0"
     id="path831"
     style="font-style:normal;font-variant:normal;font-weight:300;font-stretch:normal;font-size:27.64785385px;line-height:1.25;font-family:Montserrat;-inkscape-font-specification:'Montserrat Light';letter-spacing:-0.74212456px;word-spacing:0px;fill:#2e3034;fill-opacity:1;stroke:none;stroke-width:0.99999994"
     d="m 101.32721,37.10345 q 2.01829,0 3.64951,0.940027 1.63123,0.940027 2.54361,2.598898 0.94002,1.658872 0.94002,3.787756 0,2.128885 -0.94002,3.815404 -0.91238,1.658871 -2.54361,2.598898 -1.63122,0.91238 -3.64951,0.91238 -1.907706,0 -3.455986,-0.884732 -1.54828,-0.912379 -2.405363,-2.515954 v 8.653778 H 94.083468 V 37.214041 h 1.327097 v 3.400686 q 0.857084,-1.658871 2.405364,-2.57125 1.575927,-0.940027 3.511281,-0.940027 z m -0.0829,13.409209 q 1.65887,0 2.98597,-0.77414 1.3271,-0.77414 2.07359,-2.156532 0.77414,-1.382393 0.77414,-3.151856 0,-1.769462 -0.77414,-3.151855 -0.74649,-1.382393 -2.07359,-2.156533 -1.3271,-0.77414 -2.98597,-0.77414 -1.658869,0 -2.985966,0.77414 -1.299449,0.77414 -2.073589,2.156533 -0.746492,1.382393 -0.746492,3.151855 0,1.769463 0.746492,3.151856 0.77414,1.382392 2.073589,2.156532 1.327097,0.77414 2.985966,0.77414 z" />
  <path
     inkscape:connector-curvature="0"
     id="path833"
     style="font-style:normal;font-variant:normal;font-weight:300;font-stretch:normal;font-size:27.64785385px;line-height:1.25;font-family:Montserrat;-inkscape-font-specification:'Montserrat Light';letter-spacing:-0.74212456px;word-spacing:0px;fill:#2e3034;fill-opacity:1;stroke:none;stroke-width:0.99999994"
     d="m 124.21795,44.761906 h -12.41389 q 0.0553,1.686519 0.85709,3.013616 0.80178,1.299449 2.15653,2.018293 1.38239,0.718844 3.09656,0.718844 1.41004,0 2.5989,-0.497661 1.2165,-0.525309 2.01829,-1.520632 l 0.80179,0.912379 q -0.94003,1.133562 -2.37772,1.741815 -1.41004,0.608253 -3.06891,0.608253 -2.15653,0 -3.84305,-0.940027 -1.68652,-0.940027 -2.65419,-2.598899 -0.94003,-1.658871 -0.94003,-3.787756 0,-2.101237 0.88473,-3.760108 0.91238,-1.686519 2.48831,-2.626546 1.57592,-0.940027 3.53892,-0.940027 1.963,0 3.51128,0.940027 1.57593,0.912379 2.46066,2.57125 0.91238,1.658872 0.91238,3.760109 z m -6.85667,-6.44195 q -1.52063,0 -2.73714,0.691196 -1.2165,0.663548 -1.96299,1.907702 -0.71885,1.216505 -0.82944,2.764785 h 11.05914 q -0.0829,-1.54828 -0.82943,-2.764785 -0.74649,-1.216506 -1.963,-1.907702 -1.21651,-0.691196 -2.73714,-0.691196 z" />
  <path
     inkscape:connector-curvature="0"
     id="path835"
     style="font-style:normal;font-variant:normal;font-weight:300;font-stretch:normal;font-size:27.64785385px;line-height:1.25;font-family:Montserrat;-inkscape-font-specification:'Montserrat Light';letter-spacing:-0.74212456px;word-spacing:0px;fill:#2e3034;fill-opacity:1;stroke:none;stroke-width:0.99999994"
     d="m 134.85723,37.10345 q 2.70949,0 4.28542,1.575928 1.57593,1.575927 1.57593,4.534248 v 8.432595 h -1.38239 v -8.322004 q 0,-2.433011 -1.24416,-3.704812 -1.2165,-1.271802 -3.42833,-1.271802 -2.5436,0 -4.00894,1.520632 -1.46534,1.520632 -1.46534,4.091883 v 7.686103 h -1.38239 v -14.43218 h 1.3271 v 3.124208 q 0.74649,-1.520632 2.21183,-2.377715 1.49298,-0.857084 3.51127,-0.857084 z" />
  <path
     inkscape:connector-curvature="0"
     id="path837"
     style="font-style:normal;font-variant:normal;font-weight:300;font-stretch:normal;font-size:27.64785385px;line-height:1.25;font-family:Montserrat;-inkscape-font-specification:'Montserrat Light';letter-spacing:-0.74212456px;word-spacing:0px;fill:#2e3034;fill-opacity:1;stroke:none;stroke-width:0.99999994"
     d="m 164.44005,51.646221 -0.0276,-16.561064 -8.10082,13.989814 h -0.6912 l -8.10082,-13.934519 v 16.505769 h -1.38239 V 32.292723 h 1.18885 l 8.65378,14.957489 8.65378,-14.957489 h 1.16121 l 0.0276,19.353498 z" />
  <path
     inkscape:connector-curvature="0"
     id="path839"
     style="font-style:normal;font-variant:normal;font-weight:300;font-stretch:normal;font-size:27.64785385px;line-height:1.25;font-family:Montserrat;-inkscape-font-specification:'Montserrat Light';letter-spacing:-0.74212456px;word-spacing:0px;fill:#2e3034;fill-opacity:1;stroke:none;stroke-width:0.99999994"
     d="m 176.99871,51.756813 q -2.04594,0 -3.70482,-0.940027 -1.63122,-0.940027 -2.57125,-2.598899 -0.94002,-1.686519 -0.94002,-3.787756 0,-2.101237 0.94002,-3.760108 0.94003,-1.686519 2.57125,-2.626546 1.65888,-0.940027 3.70482,-0.940027 2.04594,0 3.67716,0.940027 1.65887,0.940027 2.5989,2.626546 0.94003,1.658871 0.94003,3.760108 0,2.101237 -0.94003,3.787756 -0.94003,1.658872 -2.5989,2.598899 -1.63122,0.940027 -3.67716,0.940027 z m 0,-1.244154 q 1.65887,0 2.95832,-0.77414 1.32709,-0.77414 2.07359,-2.156532 0.77414,-1.382393 0.77414,-3.151856 0,-1.769462 -0.77414,-3.151855 -0.7465,-1.382393 -2.07359,-2.156533 -1.29945,-0.77414 -2.95832,-0.77414 -1.65887,0 -2.98597,0.77414 -1.29945,0.77414 -2.07359,2.156533 -0.74649,1.382393 -0.74649,3.151855 0,1.769463 0.74649,3.151856 0.77414,1.382392 2.07359,2.156532 1.3271,0.77414 2.98597,0.77414 z" />
  <path
     inkscape:connector-curvature="0"
     id="path841"
     style="font-style:normal;font-variant:normal;font-weight:300;font-stretch:normal;font-size:27.64785385px;line-height:1.25;font-family:Montserrat;-inkscape-font-specification:'Montserrat Light';letter-spacing:-0.74212456px;word-spacing:0px;fill:#2e3034;fill-opacity:1;stroke:none;stroke-width:0.99999994"
     d="m 191.38385,51.756813 q -1.74182,0 -3.31775,-0.52531 -1.57592,-0.525309 -2.46065,-1.327097 l 0.6359,-1.105914 q 0.88473,0.746492 2.26712,1.244154 1.41004,0.497661 2.93067,0.497661 2.18418,0 3.20715,-0.718844 1.05062,-0.718844 1.05062,-1.990646 0,-0.912379 -0.5806,-1.437688 -0.55296,-0.525309 -1.3824,-0.77414 -0.82943,-0.248831 -2.29477,-0.525309 -1.71416,-0.304127 -2.76478,-0.663549 -1.05062,-0.359422 -1.79711,-1.16121 -0.7465,-0.801787 -0.7465,-2.211828 0,-1.714167 1.41005,-2.820081 1.43768,-1.133562 4.06423,-1.133562 1.38239,0 2.73714,0.38707 1.35474,0.38707 2.21183,1.022971 l -0.63591,1.105914 q -0.88473,-0.635901 -2.01829,-0.967675 -1.13356,-0.331774 -2.32242,-0.331774 -2.01829,0 -3.04126,0.746492 -1.02297,0.746492 -1.02297,1.962997 0,0.967675 0.5806,1.520632 0.58061,0.525309 1.41004,0.801788 0.85709,0.248831 2.37772,0.552957 1.68652,0.304126 2.70949,0.663549 1.05062,0.331774 1.76946,1.105914 0.71884,0.77414 0.71884,2.128884 0,1.797111 -1.49298,2.875377 -1.49298,1.078267 -4.20247,1.078267 z" />
  <path
     inkscape:connector-curvature="0"
     id="path843"
     style="font-style:normal;font-variant:normal;font-weight:300;font-stretch:normal;font-size:27.64785385px;line-height:1.25;font-family:Montserrat;-inkscape-font-specification:'Montserrat Light';letter-spacing:-0.74212456px;word-spacing:0px;fill:#2e3034;fill-opacity:1;stroke:none;stroke-width:0.99999994"
     d="m 204.56285,32.20978 q -2.70949,0 -2.70949,2.903025 v 2.101236 h 4.61719 v 1.188858 h -4.58954 v 13.243322 h -1.38239 V 38.402899 h -2.6542 v -1.188858 h 2.6542 v -2.211828 q 0,-1.824758 1.05062,-2.903025 1.05061,-1.078266 2.95832,-1.078266 0.82943,0 1.57592,0.248831 0.77414,0.221183 1.2718,0.691196 l -0.55295,1.050619 Q 205.9176,32.20978 204.56285,32.20978 Z" />
  <path
     inkscape:connector-curvature="0"
     id="path845"
     style="font-style:normal;font-variant:normal;font-weight:300;font-stretch:normal;font-size:27.64785385px;line-height:1.25;font-family:Montserrat;-inkscape-font-specification:'Montserrat Light';letter-spacing:-0.74212456px;word-spacing:0px;fill:#2e3034;fill-opacity:1;stroke:none;stroke-width:0.99999994"
     d="m 220.47467,44.761906 h -12.41388 q 0.0553,1.686519 0.85708,3.013616 0.80179,1.299449 2.15653,2.018293 1.38239,0.718844 3.09656,0.718844 1.41004,0 2.5989,-0.497661 1.2165,-0.525309 2.01829,-1.520632 l 0.80179,0.912379 q -0.94003,1.133562 -2.37772,1.741815 -1.41004,0.608253 -3.06891,0.608253 -2.15653,0 -3.84305,-0.940027 -1.68652,-0.940027 -2.65419,-2.598899 -0.94003,-1.658871 -0.94003,-3.787756 0,-2.101237 0.88473,-3.760108 0.91238,-1.686519 2.48831,-2.626546 1.57593,-0.940027 3.53892,-0.940027 1.963,0 3.51128,0.940027 1.57593,0.912379 2.46066,2.57125 0.91238,1.658872 0.91238,3.760109 z m -6.85667,-6.44195 q -1.52063,0 -2.73713,0.691196 -1.21651,0.663548 -1.963,1.907702 -0.71885,1.216505 -0.82944,2.764785 h 11.05914 q -0.0829,-1.54828 -0.82943,-2.764785 -0.74649,-1.216506 -1.963,-1.907702 -1.2165,-0.691196 -2.73714,-0.691196 z" />
  <path
     inkscape:connector-curvature="0"
     id="path847"
     style="font-style:normal;font-variant:normal;font-weight:300;font-stretch:normal;font-size:27.64785385px;line-height:1.25;font-family:Montserrat;-inkscape-font-specification:'Montserrat Light';letter-spacing:-0.74212456px;word-spacing:0px;fill:#2e3034;fill-opacity:1;stroke:none;stroke-width:0.99999994"
     d="m 231.22455,50.733842 q -0.52531,0.497661 -1.3271,0.77414 -0.77414,0.248831 -1.63122,0.248831 -1.88006,0 -2.90303,-1.022971 -1.02297,-1.050618 -1.02297,-2.903025 v -9.427918 h -2.65419 v -1.188858 h 2.65419 v -3.151855 h 1.38239 v 3.151855 h 4.58955 v 1.188858 h -4.58955 v 9.289679 q 0,1.410041 0.66355,2.156533 0.6912,0.718844 2.0183,0.718844 1.35474,0 2.23947,-0.801788 z" />
</svg>
